<svg width="537" height="62" viewBox="0 0 537 62" fill="none" xmlns="http://www.w3.org/2000/svg">
<path d="M24.2246 36.6621C24.2246 35.998 24.127 35.4023 23.9316 34.875C23.7363 34.3281 23.375 33.8203 22.8477 33.3516C22.3203 32.8828 21.5586 32.4141 20.5625 31.9453C19.5859 31.457 18.2969 30.9492 16.6953 30.4219C14.8203 29.7969 13.0137 29.0938 11.2754 28.3125C9.53711 27.5117 7.98438 26.584 6.61719 25.5293C5.25 24.4551 4.16602 23.2051 3.36523 21.7793C2.56445 20.334 2.16406 18.6543 2.16406 16.7402C2.16406 14.9043 2.57422 13.2539 3.39453 11.7891C4.21484 10.3047 5.35742 9.04492 6.82227 8.00977C8.30664 6.95508 10.0449 6.1543 12.0371 5.60742C14.0293 5.04102 16.207 4.75781 18.5703 4.75781C21.6953 4.75781 24.4492 5.30469 26.832 6.39844C29.2344 7.47266 31.1094 9.00586 32.457 10.998C33.8242 12.9707 34.5078 15.3047 34.5078 18H24.2832C24.2832 16.9258 24.0586 15.9785 23.6094 15.1582C23.1797 14.3379 22.5254 13.6934 21.6465 13.2246C20.7676 12.7559 19.6641 12.5215 18.3359 12.5215C17.0469 12.5215 15.9629 12.7168 15.084 13.1074C14.2051 13.498 13.541 14.0254 13.0918 14.6895C12.6426 15.334 12.418 16.0469 12.418 16.8281C12.418 17.4727 12.5938 18.0586 12.9453 18.5859C13.3164 19.0938 13.834 19.5723 14.498 20.0215C15.1816 20.4707 16.002 20.9004 16.959 21.3105C17.9355 21.7207 19.0293 22.1211 20.2402 22.5117C22.5059 23.2344 24.5176 24.0449 26.2754 24.9434C28.0527 25.8223 29.5469 26.8281 30.7578 27.9609C31.9883 29.0742 32.916 30.3438 33.541 31.7695C34.1855 33.1953 34.5078 34.8066 34.5078 36.6035C34.5078 38.5176 34.1367 40.2168 33.3945 41.7012C32.6523 43.1855 31.5879 44.4453 30.2012 45.4805C28.8145 46.4961 27.1543 47.2676 25.2207 47.7949C23.2871 48.3223 21.1289 48.5859 18.7461 48.5859C16.5586 48.5859 14.4004 48.3125 12.2715 47.7656C10.1621 47.1992 8.24805 46.3398 6.5293 45.1875C4.81055 44.0156 3.43359 42.5215 2.39844 40.7051C1.38281 38.8691 0.875 36.6914 0.875 34.1719H11.1875C11.1875 35.4219 11.3535 36.4766 11.6855 37.3359C12.0176 38.1953 12.5059 38.8887 13.1504 39.416C13.7949 39.9238 14.5859 40.2949 15.5234 40.5293C16.4609 40.7441 17.5352 40.8516 18.7461 40.8516C20.0547 40.8516 21.1094 40.666 21.9102 40.2949C22.7109 39.9043 23.2969 39.3965 23.668 38.7715C24.0391 38.127 24.2246 37.4238 24.2246 36.6621ZM62.9551 5.34375H73.2383V33.2051C73.2383 36.5254 72.5449 39.3379 71.1582 41.6426C69.7715 43.9277 67.8281 45.6562 65.3281 46.8281C62.8281 48 59.8887 48.5859 56.5098 48.5859C53.1699 48.5859 50.2305 48 47.6914 46.8281C45.1719 45.6562 43.1992 43.9277 41.7734 41.6426C40.3672 39.3379 39.6641 36.5254 39.6641 33.2051V5.34375H49.9766V33.2051C49.9766 34.9629 50.2305 36.3984 50.7383 37.5117C51.2461 38.6055 51.9883 39.4062 52.9648 39.9141C53.9414 40.4219 55.123 40.6758 56.5098 40.6758C57.916 40.6758 59.0977 40.4219 60.0547 39.9141C61.0117 39.4062 61.7344 38.6055 62.2227 37.5117C62.7109 36.3984 62.9551 34.9629 62.9551 33.2051V5.34375ZM97.1152 29.8652H86.1289L86.0703 23.127H94.9766C96.5781 23.127 97.8574 22.9512 98.8145 22.5996C99.7715 22.2285 100.465 21.6914 100.895 20.9883C101.344 20.2852 101.568 19.4062 101.568 18.3516C101.568 17.1406 101.344 16.1641 100.895 15.4219C100.445 14.6797 99.7324 14.1426 98.7559 13.8105C97.7988 13.459 96.5586 13.2832 95.0352 13.2832H89.9961V48H79.7129V5.34375H95.0352C97.6719 5.34375 100.025 5.58789 102.096 6.07617C104.166 6.54492 105.924 7.26758 107.369 8.24414C108.834 9.2207 109.947 10.4512 110.709 11.9355C111.471 13.4004 111.852 15.1289 111.852 17.1211C111.852 18.8594 111.48 20.4902 110.738 22.0137C109.996 23.5371 108.756 24.7773 107.018 25.7344C105.299 26.6719 102.945 27.1602 99.957 27.1992L97.1152 29.8652ZM96.7051 48H83.6387L87.1543 40.0898H96.7051C98.1113 40.0898 99.2344 39.875 100.074 39.4453C100.934 38.9961 101.549 38.4102 101.92 37.6875C102.311 36.9453 102.506 36.125 102.506 35.2266C102.506 34.1328 102.32 33.1855 101.949 32.3848C101.598 31.584 101.031 30.9688 100.25 30.5391C99.4688 30.0898 98.4238 29.8652 97.1152 29.8652H88.4727L88.5312 23.127H98.873L101.275 25.8223C104.127 25.7051 106.383 26.1055 108.043 27.0234C109.723 27.9414 110.924 29.1523 111.646 30.6562C112.369 32.1602 112.73 33.7324 112.73 35.373C112.73 38.166 112.125 40.5 110.914 42.375C109.723 44.25 107.936 45.6562 105.553 46.5938C103.17 47.5312 100.221 48 96.7051 48ZM140.416 36.6621C140.416 35.998 140.318 35.4023 140.123 34.875C139.928 34.3281 139.566 33.8203 139.039 33.3516C138.512 32.8828 137.75 32.4141 136.754 31.9453C135.777 31.457 134.488 30.9492 132.887 30.4219C131.012 29.7969 129.205 29.0938 127.467 28.3125C125.729 27.5117 124.176 26.584 122.809 25.5293C121.441 24.4551 120.357 23.2051 119.557 21.7793C118.756 20.334 118.355 18.6543 118.355 16.7402C118.355 14.9043 118.766 13.2539 119.586 11.7891C120.406 10.3047 121.549 9.04492 123.014 8.00977C124.498 6.95508 126.236 6.1543 128.229 5.60742C130.221 5.04102 132.398 4.75781 134.762 4.75781C137.887 4.75781 140.641 5.30469 143.023 6.39844C145.426 7.47266 147.301 9.00586 148.648 10.998C150.016 12.9707 150.699 15.3047 150.699 18H140.475C140.475 16.9258 140.25 15.9785 139.801 15.1582C139.371 14.3379 138.717 13.6934 137.838 13.2246C136.959 12.7559 135.855 12.5215 134.527 12.5215C133.238 12.5215 132.154 12.7168 131.275 13.1074C130.396 13.498 129.732 14.0254 129.283 14.6895C128.834 15.334 128.609 16.0469 128.609 16.8281C128.609 17.4727 128.785 18.0586 129.137 18.5859C129.508 19.0938 130.025 19.5723 130.689 20.0215C131.373 20.4707 132.193 20.9004 133.15 21.3105C134.127 21.7207 135.221 22.1211 136.432 22.5117C138.697 23.2344 140.709 24.0449 142.467 24.9434C144.244 25.8223 145.738 26.8281 146.949 27.9609C148.18 29.0742 149.107 30.3438 149.732 31.7695C150.377 33.1953 150.699 34.8066 150.699 36.6035C150.699 38.5176 150.328 40.2168 149.586 41.7012C148.844 43.1855 147.779 44.4453 146.393 45.4805C145.006 46.4961 143.346 47.2676 141.412 47.7949C139.479 48.3223 137.32 48.5859 134.938 48.5859C132.75 48.5859 130.592 48.3125 128.463 47.7656C126.354 47.1992 124.439 46.3398 122.721 45.1875C121.002 44.0156 119.625 42.5215 118.59 40.7051C117.574 38.8691 117.066 36.6914 117.066 34.1719H127.379C127.379 35.4219 127.545 36.4766 127.877 37.3359C128.209 38.1953 128.697 38.8887 129.342 39.416C129.986 39.9238 130.777 40.2949 131.715 40.5293C132.652 40.7441 133.727 40.8516 134.938 40.8516C136.246 40.8516 137.301 40.666 138.102 40.2949C138.902 39.9043 139.488 39.3965 139.859 38.7715C140.23 38.127 140.416 37.4238 140.416 36.6621ZM176.656 5.34375V48H166.373V5.34375H176.656ZM189.488 5.34375V13.2832H153.834V5.34375H189.488ZM208.355 14.3086L197.955 48H186.91L202.584 5.34375H209.586L208.355 14.3086ZM216.969 48L206.539 14.3086L205.191 5.34375H212.281L228.043 48H216.969ZM216.559 32.0918V40.0312H194.674V32.0918H216.559ZM266.803 5.34375V48H256.549L241.461 21.457V48H231.178V5.34375H241.461L256.549 31.8867V5.34375H266.803ZM297.564 33.5566H307.818C307.682 36.5254 306.881 39.1426 305.416 41.4082C303.951 43.6738 301.92 45.4414 299.322 46.7109C296.744 47.9609 293.697 48.5859 290.182 48.5859C287.33 48.5859 284.781 48.1074 282.535 47.1504C280.309 46.1934 278.414 44.8164 276.852 43.0195C275.309 41.2227 274.127 39.0449 273.307 36.4863C272.506 33.9277 272.105 31.0469 272.105 27.8438V25.5293C272.105 22.3262 272.525 19.4453 273.365 16.8867C274.225 14.3086 275.436 12.1211 276.998 10.3242C278.58 8.50781 280.475 7.12109 282.682 6.16406C284.889 5.20703 287.34 4.72852 290.035 4.72852C293.746 4.72852 296.881 5.39258 299.439 6.7207C301.998 8.04883 303.98 9.875 305.387 12.1992C306.793 14.5039 307.623 17.1309 307.877 20.0801H297.623C297.584 18.4785 297.311 17.1406 296.803 16.0664C296.295 14.9727 295.494 14.1523 294.4 13.6055C293.307 13.0586 291.852 12.7852 290.035 12.7852C288.766 12.7852 287.662 13.0195 286.725 13.4883C285.787 13.957 285.006 14.6992 284.381 15.7148C283.756 16.7305 283.287 18.0488 282.975 19.6699C282.682 21.2715 282.535 23.2051 282.535 25.4707V27.8438C282.535 30.1094 282.672 32.043 282.945 33.6445C283.219 35.2461 283.658 36.5547 284.264 37.5703C284.869 38.5859 285.65 39.3379 286.607 39.8262C287.584 40.2949 288.775 40.5293 290.182 40.5293C291.744 40.5293 293.062 40.2852 294.137 39.7969C295.211 39.2891 296.041 38.5273 296.627 37.5117C297.213 36.4766 297.525 35.1582 297.564 33.5566ZM342.037 40.0898V48H319.303V40.0898H342.037ZM322.965 5.34375V48H312.682V5.34375H322.965ZM339.107 22.2773V29.9238H319.303V22.2773H339.107ZM342.125 5.34375V13.2832H319.303V5.34375H342.125ZM361.49 31.4766V30.6562C361.49 26.6133 361.9 22.9316 362.721 19.6113C363.561 16.2715 364.684 13.3418 366.09 10.8223C367.496 8.30273 369.059 6.21289 370.777 4.55273C372.516 2.87305 374.293 1.67188 376.109 0.949219L377.955 5.8125C376.861 6.61328 375.797 7.70703 374.762 9.09375C373.746 10.4609 372.828 12.1504 372.008 14.1621C371.188 16.1738 370.533 18.5371 370.045 21.252C369.576 23.9668 369.342 27.082 369.342 30.5977V31.5352C369.342 35.0508 369.576 38.166 370.045 40.8809C370.533 43.5957 371.188 45.959 372.008 47.9707C372.828 49.9824 373.746 51.6719 374.762 53.0391C375.797 54.4258 376.861 55.5195 377.955 56.3203L376.109 61.1836C374.293 60.4414 372.516 59.2402 370.777 57.5801C369.059 55.9199 367.496 53.8301 366.09 51.3105C364.684 48.791 363.561 45.8711 362.721 42.5508C361.9 39.2109 361.49 35.5195 361.49 31.4766ZM411.559 40.3828V48H381.793V41.5547L395.504 27.1406C396.715 25.7539 397.691 24.5137 398.434 23.4199C399.176 22.3066 399.713 21.3008 400.045 20.4023C400.396 19.5039 400.572 18.6934 400.572 17.9707C400.572 16.7402 400.387 15.7148 400.016 14.8945C399.664 14.0547 399.137 13.4199 398.434 12.9902C397.75 12.5605 396.9 12.3457 395.885 12.3457C394.869 12.3457 393.98 12.6387 393.219 13.2246C392.457 13.8105 391.861 14.6113 391.432 15.627C391.021 16.6426 390.816 17.7852 390.816 19.0547H380.914C380.914 16.4375 381.549 14.0449 382.818 11.877C384.107 9.70898 385.895 7.98047 388.18 6.69141C390.465 5.38281 393.111 4.72852 396.119 4.72852C399.264 4.72852 401.9 5.2168 404.029 6.19336C406.158 7.16992 407.76 8.58594 408.834 10.4414C409.928 12.2773 410.475 14.4941 410.475 17.0918C410.475 18.5762 410.24 20.002 409.771 21.3691C409.303 22.7363 408.629 24.0938 407.75 25.4414C406.871 26.7695 405.797 28.1367 404.527 29.543C403.277 30.9492 401.852 32.4434 400.25 34.0254L394.742 40.3828H411.559ZM446.217 22.7754V30.5684C446.217 33.6348 445.855 36.3008 445.133 38.5664C444.43 40.832 443.414 42.707 442.086 44.1914C440.777 45.6758 439.215 46.7793 437.398 47.502C435.582 48.2246 433.58 48.5859 431.393 48.5859C429.635 48.5859 427.994 48.3613 426.471 47.9121C424.947 47.4434 423.57 46.7402 422.34 45.8027C421.129 44.8457 420.084 43.6543 419.205 42.2285C418.326 40.8027 417.652 39.123 417.184 37.1895C416.715 35.2363 416.48 33.0293 416.48 30.5684V22.7754C416.48 19.6895 416.832 17.0234 417.535 14.7773C418.258 12.5117 419.283 10.6367 420.611 9.15234C421.939 7.66797 423.512 6.56445 425.328 5.8418C427.145 5.11914 429.146 4.75781 431.334 4.75781C433.092 4.75781 434.723 4.99219 436.227 5.46094C437.75 5.91016 439.127 6.61328 440.357 7.57031C441.588 8.50781 442.633 9.68945 443.492 11.1152C444.371 12.541 445.045 14.2305 445.514 16.1836C445.982 18.1172 446.217 20.3145 446.217 22.7754ZM436.344 31.7695V21.5156C436.344 20.1484 436.266 18.957 436.109 17.9414C435.973 16.9258 435.758 16.0664 435.465 15.3633C435.191 14.6602 434.85 14.0938 434.439 13.6641C434.029 13.2148 433.561 12.8926 433.033 12.6973C432.525 12.4824 431.959 12.375 431.334 12.375C430.553 12.375 429.85 12.541 429.225 12.873C428.619 13.1855 428.102 13.6934 427.672 14.3965C427.242 15.0996 426.91 16.0371 426.676 17.209C426.461 18.3809 426.354 19.8164 426.354 21.5156V31.7695C426.354 33.1562 426.422 34.3672 426.559 35.4023C426.715 36.418 426.93 37.2871 427.203 38.0098C427.496 38.7129 427.848 39.2891 428.258 39.7383C428.668 40.168 429.137 40.4805 429.664 40.6758C430.191 40.8711 430.768 40.9688 431.393 40.9688C432.154 40.9688 432.838 40.8125 433.443 40.5C434.049 40.1875 434.566 39.6797 434.996 38.9766C435.445 38.2539 435.777 37.3066 435.992 36.1348C436.227 34.9434 436.344 33.4883 436.344 31.7695ZM481.168 40.3828V48H451.402V41.5547L465.113 27.1406C466.324 25.7539 467.301 24.5137 468.043 23.4199C468.785 22.3066 469.322 21.3008 469.654 20.4023C470.006 19.5039 470.182 18.6934 470.182 17.9707C470.182 16.7402 469.996 15.7148 469.625 14.8945C469.273 14.0547 468.746 13.4199 468.043 12.9902C467.359 12.5605 466.51 12.3457 465.494 12.3457C464.479 12.3457 463.59 12.6387 462.828 13.2246C462.066 13.8105 461.471 14.6113 461.041 15.627C460.631 16.6426 460.426 17.7852 460.426 19.0547H450.523C450.523 16.4375 451.158 14.0449 452.428 11.877C453.717 9.70898 455.504 7.98047 457.789 6.69141C460.074 5.38281 462.721 4.72852 465.729 4.72852C468.873 4.72852 471.51 5.2168 473.639 6.19336C475.768 7.16992 477.369 8.58594 478.443 10.4414C479.537 12.2773 480.084 14.4941 480.084 17.0918C480.084 18.5762 479.85 20.002 479.381 21.3691C478.912 22.7363 478.238 24.0938 477.359 25.4414C476.48 26.7695 475.406 28.1367 474.137 29.543C472.887 30.9492 471.461 32.4434 469.859 34.0254L464.352 40.3828H481.168ZM515.973 40.3828V48H486.207V41.5547L499.918 27.1406C501.129 25.7539 502.105 24.5137 502.848 23.4199C503.59 22.3066 504.127 21.3008 504.459 20.4023C504.811 19.5039 504.986 18.6934 504.986 17.9707C504.986 16.7402 504.801 15.7148 504.43 14.8945C504.078 14.0547 503.551 13.4199 502.848 12.9902C502.164 12.5605 501.314 12.3457 500.299 12.3457C499.283 12.3457 498.395 12.6387 497.633 13.2246C496.871 13.8105 496.275 14.6113 495.846 15.627C495.436 16.6426 495.23 17.7852 495.23 19.0547H485.328C485.328 16.4375 485.963 14.0449 487.232 11.877C488.521 9.70898 490.309 7.98047 492.594 6.69141C494.879 5.38281 497.525 4.72852 500.533 4.72852C503.678 4.72852 506.314 5.2168 508.443 6.19336C510.572 7.16992 512.174 8.58594 513.248 10.4414C514.342 12.2773 514.889 14.4941 514.889 17.0918C514.889 18.5762 514.654 20.002 514.186 21.3691C513.717 22.7363 513.043 24.0938 512.164 25.4414C511.285 26.7695 510.211 28.1367 508.941 29.543C507.691 30.9492 506.266 32.4434 504.664 34.0254L499.156 40.3828H515.973ZM536.715 30.6562V31.4766C536.715 35.3242 536.275 38.8984 535.396 42.1992C534.537 45.5 533.375 48.4395 531.91 51.0176C530.445 53.5957 528.805 55.7441 526.988 57.4629C525.191 59.2012 523.346 60.4414 521.451 61.1836L519.547 56.3203C520.641 55.5195 521.695 54.4258 522.711 53.0391C523.746 51.6719 524.674 49.9824 525.494 47.9707C526.314 45.959 526.959 43.5957 527.428 40.8809C527.916 38.166 528.16 35.0508 528.16 31.5352V30.5977C528.16 27.082 527.916 23.9668 527.428 21.252C526.959 18.5371 526.314 16.1738 525.494 14.1621C524.674 12.1504 523.746 10.4609 522.711 9.09375C521.695 7.70703 520.641 6.61328 519.547 5.8125L521.451 0.949219C523.346 1.67188 525.191 2.90234 526.988 4.64062C528.805 6.37891 530.445 8.53711 531.91 11.1152C533.375 13.6934 534.537 16.6328 535.396 19.9336C536.275 23.2344 536.715 26.8086 536.715 30.6562Z" fill="black"/>
</svg>
